<?xml version="1.0" encoding="UTF-8"?>
<!DOCTYPE svg PUBLIC "-//W3C//DTD SVG 1.1//EN" "http://www.w3.org/Graphics/SVG/1.1/DTD/svg11.dtd">
<svg xmlns="http://www.w3.org/2000/svg" version="1.1" width="321px" height="86px" style="shape-rendering:geometricPrecision; text-rendering:geometricPrecision; image-rendering:optimizeQuality; fill-rule:evenodd; clip-rule:evenodd" xmlns:xlink="http://www.w3.org/1999/xlink">
<g><path style="opacity:0.781" fill="#00d2d2" d="M 9.5,-0.5 C 10.8333,-0.5 12.1667,-0.5 13.5,-0.5C 9.86804,6.00112 6.36804,12.6678 3,19.5C 1.98873,20.3366 0.822066,20.67 -0.5,20.5C -0.5,18.8333 -0.5,17.1667 -0.5,15.5C 2.8193,10.2028 6.15264,4.86947 9.5,-0.5 Z"/></g>
<g><path style="opacity:0.789" fill="#00d2d2" d="M 18.5,0.5 C 19.8333,0.5 21.1667,0.5 22.5,0.5C 22.5086,2.30839 22.0086,3.97506 21,5.5C 17.2823,8.61558 14.2823,12.2823 12,16.5C 10.0304,21.1174 7.69708,25.4508 5,29.5C 3.72024,29.3865 2.88691,28.7199 2.5,27.5C 6.2357,17.4589 11.569,8.45891 18.5,0.5 Z"/></g>
<g><path style="opacity:0.794" fill="#00d2d2" d="M 27.5,1.5 C 30.1662,1.06577 31.3329,2.06577 31,4.5C 20.4943,13.1788 13.8276,24.1788 11,37.5C 9.11974,38.9295 7.61974,38.5962 6.5,36.5C 9.81036,22.5441 16.8104,10.8774 27.5,1.5 Z"/></g>
<g><path style="opacity:0.792" fill="#00d2d2" d="M 36.5,2.5 C 39.1662,2.06577 40.3329,3.06577 40,5.5C 27.8525,13.793 20.1858,25.1263 17,39.5C 15.9887,40.3366 14.8221,40.67 13.5,40.5C 14.2011,31.2301 17.3678,22.8968 23,15.5C 27.3954,10.9357 31.8954,6.60235 36.5,2.5 Z"/></g>
<g><path style="opacity:0.774" fill="#00d2d2" d="M 46.5,4.5 C 48.1667,4.5 49.8333,4.5 51.5,4.5C 51.67,5.82207 51.3366,6.98873 50.5,8C 35.9615,14.5311 26.4615,25.3644 22,40.5C 20.5,40.3333 19.6667,39.5 19.5,38C 23.5773,22.7666 32.5773,11.5999 46.5,4.5 Z"/></g>
<g><path style="opacity:0.776" fill="#00d2d2" d="M 54.5,8.5 C 55.8333,8.5 57.1667,8.5 58.5,8.5C 58.762,9.97782 58.4287,11.3112 57.5,12.5C 43.5698,16.5964 34.4032,25.5964 30,39.5C 28.9887,40.3366 27.8221,40.67 26.5,40.5C 29.7906,24.5429 39.124,13.8762 54.5,8.5 Z"/></g>
<g><path style="opacity:0.779" fill="#00d2d2" d="M 56.5,14.5 C 58.1667,14.5 59.8333,14.5 61.5,14.5C 61.5,15.8333 61.5,17.1667 61.5,18.5C 43.2404,23.0087 34.7404,34.6754 36,53.5C 38.4134,64.0027 44.4134,71.6694 54,76.5C 54.49,77.7932 54.6567,79.1266 54.5,80.5C 39.7519,74.8857 32.0852,64.0524 31.5,48C 32.4205,31.2526 40.7538,20.086 56.5,14.5 Z"/></g>
<g><path style="opacity:0.773" fill="#00d2d2" d="M 59.5,20.5 C 62.9496,19.7564 64.6162,21.0897 64.5,24.5C 47.3865,28.0875 40.2198,38.4208 43,55.5C 44.4131,58.6612 46.0797,61.6612 48,64.5C 51.3818,67.3896 54.8818,70.0563 58.5,72.5C 58.1131,73.7199 57.2798,74.3865 56,74.5C 41.3009,67.7686 35.6342,56.4353 39,40.5C 42.4444,30.2207 49.2777,23.554 59.5,20.5 Z"/></g>
<g><path style="opacity:0.767" fill="#00d2d2" d="M 62.5,26.5 C 65.8738,26.6744 69.2072,27.1744 72.5,28C 76.7086,28.7944 77.3753,30.6277 74.5,33.5C 62.7121,28.7035 54.2121,32.0368 49,43.5C 47.2653,54.0347 51.2653,61.3681 61,65.5C 61.6987,67.0738 61.3654,68.4071 60,69.5C 47.4796,64.8004 42.4796,55.8004 45,42.5C 47.8606,33.8017 53.694,28.4684 62.5,26.5 Z"/></g>
<g><path style="opacity:0.885" fill="#083d64" d="M 120.5,28.5 C 124.5,27.8333 126.167,29.5 125.5,33.5C 122.05,32.7564 120.384,34.0897 120.5,37.5C 122.167,37.5 123.833,37.5 125.5,37.5C 125.5,38.8333 125.5,40.1667 125.5,41.5C 123.833,41.5 122.167,41.5 120.5,41.5C 120.5,46.1667 120.5,50.8333 120.5,55.5C 119.167,55.5 117.833,55.5 116.5,55.5C 116.5,50.8333 116.5,46.1667 116.5,41.5C 115.167,41.5 113.833,41.5 112.5,41.5C 112.5,40.1667 112.5,38.8333 112.5,37.5C 113.833,37.5 115.167,37.5 116.5,37.5C 115.658,33.3791 116.991,30.3791 120.5,28.5 Z"/></g>
<g><path style="opacity:0.875" fill="#093d64" d="M 296.5,28.5 C 300.161,28.3501 301.161,29.8501 299.5,33C 296.241,32.9181 295.241,31.4181 296.5,28.5 Z"/></g>
<g><path style="opacity:0.858" fill="#083d64" d="M 141.5,28.5 C 145.35,28.7007 146.35,30.5341 144.5,34C 139.676,34.1833 138.676,32.3499 141.5,28.5 Z"/></g>
<g><path style="opacity:0.803" fill="#083d64" d="M 288.5,28.5 C 289.5,28.5 290.5,28.5 291.5,28.5C 291.5,37.5 291.5,46.5 291.5,55.5C 289.876,55.6399 288.71,54.9733 288,53.5C 280.298,57.233 275.465,54.8996 273.5,46.5C 275.024,38.3057 279.691,35.6391 287.5,38.5C 288.487,35.2317 288.82,31.8984 288.5,28.5 Z M 279.5,40.5 C 287.804,40.2779 290.137,43.7779 286.5,51C 283.165,53.2909 280.332,52.7909 278,49.5C 277.207,46.2587 277.707,43.2587 279.5,40.5 Z"/></g>
<g><path style="opacity:0.891" fill="#083d64" d="M 99.5,30.5 C 101.144,30.2865 102.644,30.6198 104,31.5C 107.862,39.2582 111.029,47.2582 113.5,55.5C 109.518,55.6176 107.185,53.6176 106.5,49.5C 103.216,48.343 99.8823,48.1764 96.5,49C 95.6919,51.0876 94.6919,53.0876 93.5,55C 91.8333,55.6667 90.1667,55.6667 88.5,55C 92.0724,46.7793 95.7391,38.6126 99.5,30.5 Z M 100.5,38.5 C 102.27,39.8559 103.603,41.6892 104.5,44C 102.421,44.8077 100.421,44.641 98.5,43.5C 99.4565,41.9246 100.123,40.258 100.5,38.5 Z"/></g>
<g><path style="opacity:0.867" fill="#083d64" d="M 227.5,30.5 C 229.39,30.2965 230.89,30.9632 232,32.5C 234.333,35.8333 236.667,39.1667 239,42.5C 241.333,39.1667 243.667,35.8333 246,32.5C 247.11,30.9632 248.61,30.2965 250.5,30.5C 250.5,38.8333 250.5,47.1667 250.5,55.5C 249.5,55.5 248.5,55.5 247.5,55.5C 247.666,49.4908 247.499,43.4908 247,37.5C 244.333,40.8333 241.667,44.1667 239,47.5C 236.333,44.1667 233.667,40.8333 231,37.5C 230.501,43.4908 230.334,49.4908 230.5,55.5C 229.5,55.5 228.5,55.5 227.5,55.5C 227.5,47.1667 227.5,38.8333 227.5,30.5 Z"/></g>
<g><path style="opacity:0.761" fill="#00d2d2" d="M 60.5,33.5 C 63.8499,33.335 67.1832,33.5017 70.5,34C 72.1066,35.049 72.7733,36.549 72.5,38.5C 59.3431,35.498 53.8431,40.498 56,53.5C 58.6343,56.8151 61.801,59.3151 65.5,61C 64.9407,63.1875 63.6073,63.8542 61.5,63C 50.5614,57.5131 48.0614,49.3465 54,38.5C 55.9651,36.4497 58.1318,34.783 60.5,33.5 Z"/></g>
<g><path style="opacity:0.907" fill="#083e64" d="M 127.5,37.5 C 131.167,38.8333 134.833,38.8333 138.5,37.5C 138.66,39.1992 138.494,40.8659 138,42.5C 136.062,41.1398 134.396,41.4732 133,43.5C 132.501,47.4862 132.334,51.4862 132.5,55.5C 130.833,55.5 129.167,55.5 127.5,55.5C 127.5,49.5 127.5,43.5 127.5,37.5 Z"/></g>
<g><path style="opacity:0.894" fill="#083d65" d="M 140.5,37.5 C 142.167,37.5 143.833,37.5 145.5,37.5C 145.666,43.1764 145.499,48.8431 145,54.5C 143.644,55.3802 142.144,55.7135 140.5,55.5C 140.5,49.5 140.5,43.5 140.5,37.5 Z"/></g>
<g><path style="opacity:0.873" fill="#083d64" d="M 152.5,37.5 C 156.308,37.1632 159.974,37.6632 163.5,39C 164.861,40.5843 165.528,42.4176 165.5,44.5C 162.395,44.2183 159.562,43.2183 157,41.5C 152.918,42.1587 151.584,44.492 153,48.5C 154.062,49.8993 155.395,50.8993 157,51.5C 159.502,49.5658 162.336,48.5658 165.5,48.5C 165.201,51.6421 163.534,53.8088 160.5,55C 152.94,56.7168 148.607,53.7168 147.5,46C 148.15,42.5283 149.816,39.695 152.5,37.5 Z"/></g>
<g><path style="opacity:0.878" fill="#083d64" d="M 172.5,37.5 C 182.659,36.1581 186.826,40.4914 185,50.5C 180.015,56.6651 174.682,56.9985 169,51.5C 166.267,45.7222 167.434,41.0555 172.5,37.5 Z M 174.5,41.5 C 180.594,41.4105 182.428,44.0771 180,49.5C 177.667,52.1667 175.333,52.1667 173,49.5C 172.109,46.5024 172.609,43.8357 174.5,41.5 Z"/></g>
<g><path style="opacity:0.916" fill="#083e64" d="M 188.5,37.5 C 191.802,38.1539 194.969,38.1539 198,37.5C 200.034,37.3536 201.701,38.0203 203,39.5C 206.943,36.6342 210.61,36.9676 214,40.5C 214.499,45.4889 214.666,50.4889 214.5,55.5C 213.167,55.5 211.833,55.5 210.5,55.5C 210.665,52.1501 210.498,48.8168 210,45.5C 208,40.1667 206,40.1667 204,45.5C 203.502,48.8168 203.335,52.1501 203.5,55.5C 202.167,55.5 200.833,55.5 199.5,55.5C 199.666,51.4862 199.499,47.4862 199,43.5C 197.333,40.8333 195.667,40.8333 194,43.5C 193.501,47.4862 193.334,51.4862 193.5,55.5C 191.833,55.5 190.167,55.5 188.5,55.5C 188.5,49.5 188.5,43.5 188.5,37.5 Z"/></g>
<g><path style="opacity:0.844" fill="#083e64" d="M 259.5,37.5 C 267.837,35.8459 271.837,39.1793 271.5,47.5C 267.116,47.1744 262.783,47.5078 258.5,48.5C 261.585,53.5084 265.252,53.8417 269.5,49.5C 270.167,49.8333 270.833,50.1667 271.5,50.5C 266.727,56.7114 261.56,57.0447 256,51.5C 253.441,45.8222 254.608,41.1555 259.5,37.5 Z M 260.5,40.5 C 264.169,39.6971 266.836,40.8638 268.5,44C 265.118,44.8236 261.784,44.657 258.5,43.5C 259.193,42.4822 259.859,41.4822 260.5,40.5 Z"/></g>
<g><path style="opacity:0.743" fill="#073e64" d="M 296.5,37.5 C 297.5,37.5 298.5,37.5 299.5,37.5C 299.5,43.5 299.5,49.5 299.5,55.5C 298.5,55.5 297.5,55.5 296.5,55.5C 296.5,49.5 296.5,43.5 296.5,37.5 Z"/></g>
<g><path style="opacity:0.849" fill="#083d64" d="M 320.5,37.5 C 320.5,43.5 320.5,49.5 320.5,55.5C 318.876,55.6399 317.71,54.9733 317,53.5C 313.113,56.1312 309.28,55.9646 305.5,53C 302.398,47.4776 303.065,42.4776 307.5,38C 311.928,37.9431 316.261,37.7765 320.5,37.5 Z M 309.5,40.5 C 316.503,39.6727 319.003,42.6727 317,49.5C 313.255,53.5661 309.922,53.2327 307,48.5C 306.018,45.2253 306.851,42.5586 309.5,40.5 Z"/></g>
<g><path style="opacity:0.773" fill="#00d2d2" d="M 63.5,39.5 C 66.9496,38.7564 68.6162,40.0897 68.5,43.5C 60.3456,44.8948 59.3456,48.5615 65.5,54.5C 64.6518,56.2828 63.3185,56.7828 61.5,56C 57.2119,52.2288 56.3786,47.7288 59,42.5C 60.6516,41.6006 62.1516,40.6006 63.5,39.5 Z"/></g>
<g><path style="opacity:0.769" fill="#00d2d2" d="M 31.5,67.5 C 32.9778,67.238 34.3112,67.5713 35.5,68.5C 38.3593,73.526 42.3593,77.3593 47.5,80C 48.9295,81.8803 48.5962,83.3803 46.5,84.5C 39.6921,80.8588 34.3588,75.6922 30.5,69C 31.056,68.6174 31.3893,68.1174 31.5,67.5 Z"/></g>
<g><path style="opacity:0.753" fill="#00d2d2" d="M 39.5,85.5 C 38.5,85.5 37.5,85.5 36.5,85.5C 34.4551,84.0772 33.4551,82.0772 33.5,79.5C 37.8063,79.3029 39.8063,81.3029 39.5,85.5 Z"/></g>
</svg>
